<?xml version="1.0" standalone="no"?>
<!DOCTYPE svg PUBLIC "-//W3C//DTD SVG 20010904//EN"
 "http://www.w3.org/TR/2001/REC-SVG-20010904/DTD/svg10.dtd">
<svg version="1.0" xmlns="http://www.w3.org/2000/svg"
 width="559.000000pt" height="447.000000pt" viewBox="0 0 559.000000 447.000000"
 preserveAspectRatio="xMidYMid meet">
<metadata>
Created by potrace 1.16, written by Peter Selinger 2001-2019
</metadata>
<g transform="translate(0.000000,447.000000) scale(0.100000,-0.100000)"
fill="#000000" stroke="none">
<path d="M723 2590 c-53 -12 -96 -43 -130 -94 -42 -62 -45 -129 -8 -210 65
-141 257 -226 514 -226 75 0 92 3 115 21 16 13 33 18 44 14 15 -6 14 -8 -8
-20 -14 -8 -20 -14 -14 -15 20 0 79 45 99 77 11 18 23 32 27 33 3 0 20 -11 36
-25 16 -13 32 -21 36 -18 4 4 11 1 16 -7 14 -22 12 2 -5 75 -22 89 -20 105 11
105 90 0 130 -111 95 -258 -10 -38 -17 -52 -27 -48 -17 7 -17 6 1 -30 53 -106
165 -120 275 -33 42 33 48 43 58 96 9 46 9 70 -2 118 -13 54 -21 66 -78 119
-34 32 -90 71 -123 87 -78 36 -252 64 -354 56 -83 -6 -106 -19 -75 -42 18 -14
18 -14 -6 -15 -48 -1 -69 -12 -94 -51 -28 -41 -32 -69 -16 -99 5 -10 7 -26 3
-36 -6 -16 -7 -16 -20 2 -17 24 -17 122 1 156 12 23 12 26 0 21 -8 -3 -17 -16
-20 -30 l-7 -25 -38 38 c-33 32 -39 35 -39 19 -1 -19 -1 -19 -11 -2 -6 9 -19
43 -30 74 -11 31 -28 66 -38 78 -11 11 -21 29 -23 40 -6 36 -103 69 -165 55z"/>
</g>
</svg>
