<?xml version="1.0" standalone="no"?>
<!DOCTYPE svg PUBLIC "-//W3C//DTD SVG 20010904//EN"
 "http://www.w3.org/TR/2001/REC-SVG-20010904/DTD/svg10.dtd">
<svg version="1.0" xmlns="http://www.w3.org/2000/svg"
 width="300.000000pt" height="240.000000pt" viewBox="0 0 300.000000 240.000000"
 preserveAspectRatio="xMidYMid meet">
<metadata>
Created by potrace 1.10, written by Peter Selinger 2001-2011
</metadata>
<g transform="translate(0.000000,240.000000) scale(0.100000,-0.100000)"
fill="#000000" stroke="none">
<path d="M502 1524 c-21 -22 -42 -104 -28 -104 12 0 91 81 92 93 0 17 -16 37
-30 36 -6 0 -21 -11 -34 -25z m38 -13 c0 -12 -29 -35 -36 -28 -7 6 17 36 29
37 4 0 7 -4 7 -9z"/>
<path d="M671 1519 c-73 -32 -194 -139 -177 -157 4 -3 30 17 59 45 127 124
277 142 277 33 0 -48 -15 -60 -126 -95 -108 -35 -160 -83 -147 -136 4 -20 1
-17 -20 12 -14 20 -29 49 -33 65 -3 16 -12 34 -19 39 -7 6 -14 19 -16 30 -3
12 -17 23 -37 29 -76 22 -147 -56 -123 -135 12 -41 66 -94 118 -115 45 -19
208 -31 217 -15 4 7 0 11 -12 11 -25 0 -62 41 -62 69 0 56 40 92 135 121 111
34 125 41 140 71 29 55 11 112 -43 135 -45 18 -77 17 -131 -7z m-214 -176 c8
-10 9 -23 2 -40 -14 -39 -11 -81 12 -125 l21 -41 -27 7 c-39 10 -99 50 -118
80 -20 30 -22 86 -4 108 31 39 88 45 114 11z m25 -60 c0 -4 8 -19 18 -33 23
-32 50 -97 43 -104 -18 -18 -82 51 -68 74 3 5 0 10 -5 12 -6 2 -8 16 -4 36 6
29 15 38 16 15z"/>
<path d="M1078 1363 c-31 -8 -32 -42 -3 -83 28 -40 28 -70 1 -70 -22 0 -30 19
-15 36 16 19 3 31 -19 18 -39 -25 -14 -74 38 -74 53 0 67 66 24 111 -26 28
-25 49 2 49 11 0 13 -6 9 -20 -5 -14 -2 -20 9 -20 21 0 21 46 0 54 -17 6 -19
6 -46 -1z"/>
<path d="M1663 1358 c-23 -11 -35 -41 -26 -64 6 -17 24 -19 22 -1 -4 28 2 45
17 51 12 5 15 2 9 -11 -7 -19 -8 -21 -24 -88 -14 -52 -13 -55 3 -55 10 0 17
17 21 55 7 51 24 77 26 38 2 -57 15 -93 32 -93 8 0 20 29 32 78 23 92 23 94 8
99 -7 3 -14 -14 -19 -44 -10 -71 -21 -85 -29 -38 -13 82 -26 95 -72 73z"/>
<path d="M1880 1352 c-20 -16 -21 -21 -10 -43 7 -13 21 -33 32 -45 22 -24 15
-54 -13 -54 -22 0 -27 35 -6 43 8 3 6 7 -7 12 -38 16 -50 -49 -12 -66 37 -17
73 -4 79 28 5 27 -19 83 -35 83 -4 0 -8 9 -8 20 0 11 7 20 15 20 8 0 15 -9 15
-20 0 -23 18 -27 26 -5 8 19 -13 45 -36 45 -10 0 -28 -8 -40 -18z"/>
<path d="M2518 1354 c-28 -14 -44 -46 -33 -64 11 -18 25 -10 25 14 0 32 36 59
62 45 22 -12 23 -32 1 -50 -15 -13 -16 -11 -9 14 5 22 3 27 -12 27 -15 0 -22
-14 -34 -70 -14 -66 -11 -89 11 -76 5 4 12 24 16 46 7 42 30 54 42 24 7 -19
-10 -50 -26 -46 -6 1 -11 -5 -11 -13 0 -18 20 -19 43 -2 21 15 35 77 18 77 -8
0 -10 11 -6 34 4 20 2 36 -4 41 -23 14 -57 13 -83 -1z"/>
<path d="M2661 1349 c-21 -13 -31 -26 -31 -44 0 -14 5 -25 10 -25 6 0 10 11
10 24 0 31 22 48 57 44 24 -3 28 -8 31 -39 4 -42 -12 -87 -33 -95 -23 -9 -26
-2 -16 37 21 83 22 89 6 89 -8 0 -17 -12 -21 -27 -3 -16 -10 -44 -15 -63 -14
-54 -12 -56 34 -56 38 1 44 4 59 36 49 96 -8 170 -91 119z"/>
<path d="M1503 1353 c-7 -2 -17 -31 -24 -63 -9 -45 -16 -60 -35 -69 -29 -13
-36 -3 -28 38 7 34 24 53 24 27 0 -9 5 -16 10 -16 6 0 10 9 10 20 0 14 -7 20
-24 20 -29 0 -46 -20 -55 -62 -4 -17 -13 -34 -20 -36 -10 -3 -12 2 -7 22 19
80 21 74 -22 74 -32 1 -44 -4 -56 -23 -9 -13 -16 -33 -16 -45 0 -11 -7 -20
-15 -20 -17 0 -19 9 -6 44 12 30 -1 43 -46 44 -35 1 -35 1 -48 -80 -5 -30 -3
-38 9 -38 10 0 20 16 27 45 16 62 30 66 26 9 -2 -40 1 -47 18 -50 10 -1 24 1
30 6 6 5 17 5 25 0 8 -5 21 -5 32 1 11 6 18 6 18 0 0 -10 25 -9 36 2 4 3 14 3
23 -2 9 -5 25 -6 36 -4 11 2 32 4 48 4 24 -1 27 2 27 29 0 20 5 30 15 30 11 0
13 -8 9 -30 -4 -19 -2 -30 5 -31 37 -4 45 -2 59 19 8 12 10 22 4 22 -5 0 -13
-7 -16 -16 -9 -23 -24 -8 -19 20 3 13 0 27 -7 31 -8 5 -6 11 7 21 13 10 14 13
4 14 -8 0 -23 -8 -34 -17 -19 -18 -19 -17 -12 25 4 23 5 42 3 41 -1 0 -8 -3
-15 -6z m-173 -75 c0 -30 -13 -58 -26 -58 -17 0 -18 24 -4 51 12 21 30 26 30
7z"/>
<path d="M2304 1339 c-2 -4 -6 -26 -8 -49 -4 -43 -29 -80 -53 -80 -21 0 -15
19 14 44 30 26 26 56 -6 56 -22 0 -51 -35 -51 -62 0 -24 -38 -44 -54 -28 -8 9
-8 14 2 17 23 9 51 45 45 59 -10 26 -51 16 -68 -16 -16 -30 -20 -79 -7 -81 4
0 16 -2 27 -4 11 -2 28 3 37 12 10 9 18 11 18 6 0 -17 43 -23 65 -9 17 11 22
11 33 0 9 -10 18 -11 32 -4 13 7 20 6 22 -2 6 -16 50 -3 79 22 l24 21 -22 -6
c-21 -6 -23 -3 -23 39 0 63 -19 59 -54 -10 -17 -35 -31 -53 -36 -48 -12 12 5
74 22 86 9 5 9 8 1 8 -6 0 -9 8 -6 18 3 13 -1 19 -12 19 -9 0 -18 -4 -21 -8z
m-128 -55 c-3 -9 -6 -18 -6 -20 0 -2 -7 -4 -15 -4 -13 0 -13 3 -3 20 15 24 33
27 24 4z m70 -22 c-14 -14 -16 -14 -16 -1 0 8 6 21 12 27 9 9 14 10 17 1 2 -6
-4 -18 -13 -27z m136 -22 c-2 -16 -9 -30 -14 -30 -6 0 -7 7 -4 16 3 9 6 22 6
30 0 8 4 14 8 14 5 0 7 -13 4 -30z"/>
<path d="M568 1323 c-23 -26 -40 -63 -30 -63 5 0 15 14 22 30 7 17 20 35 29
40 9 5 11 10 5 10 -6 0 -18 -8 -26 -17z"/>
<path d="M2083 1279 c0 -24 -7 -47 -17 -57 -15 -15 -16 -15 -16 3 0 11 4 35 9
53 8 27 7 32 -8 32 -22 0 -46 -87 -30 -107 10 -11 39 -10 58 1 12 8 33 95 26
107 -13 20 -22 7 -22 -32z"/>
<path d="M1969 1298 c0 -7 -2 -32 -5 -54 -5 -35 -3 -42 15 -47 25 -6 34 2 21
18 -7 9 -7 21 0 39 5 15 10 34 10 42 0 17 -40 19 -41 2z"/>
<path d="M660 1281 c0 -6 8 -11 18 -11 19 0 52 -47 52 -74 0 -56 -47 -93 -159
-125 -84 -23 -118 -49 -127 -97 -12 -67 51 -122 129 -111 68 9 200 100 234
161 10 18 12 18 34 2 32 -22 70 -20 109 7 38 25 51 61 43 113 -7 44 -74 105
-135 123 -61 19 -198 27 -198 12z m153 -41 c18 -17 30 -41 34 -66 5 -42 -12
-124 -27 -124 -8 0 -50 100 -50 121 0 5 -12 27 -26 49 -14 21 -23 44 -19 49
10 17 57 2 88 -29z m95 -20 c49 -35 62 -57 62 -104 0 -40 -25 -72 -65 -82 -38
-9 -56 10 -43 48 10 29 6 116 -7 151 -10 25 6 21 53 -13z m-173 -138 c-16 -27
-16 -27 8 2 l25 28 12 -36 c11 -35 10 -38 -22 -75 -65 -73 -161 -125 -217
-116 -43 6 -79 43 -75 76 1 13 3 27 3 31 1 9 45 39 63 42 7 2 20 6 28 9 18 7
93 30 100 31 3 0 12 6 20 13 62 50 65 52 68 37 2 -8 -4 -27 -13 -42z"/>
<path d="M622 1244 c-45 -31 -14 -110 40 -102 30 4 38 16 38 55 0 28 -28 63
-50 63 -3 0 -16 -7 -28 -16z m46 -42 c4 -26 -26 -42 -38 -21 -11 16 7 52 23
46 7 -2 13 -13 15 -25z"/>
<path d="M1180 1120 c0 -5 5 -10 10 -10 6 0 10 -16 10 -36 0 -22 4 -33 11 -29
6 4 7 19 4 36 -5 22 -3 29 9 29 12 0 16 -10 16 -36 0 -19 4 -33 9 -29 6 3 10
22 9 43 0 36 -2 37 -39 40 -22 1 -39 -2 -39 -8z"/>
<path d="M1380 1085 c0 -38 3 -45 20 -45 11 0 20 5 20 10 0 6 -7 10 -15 10 -9
0 -15 9 -15 25 0 19 5 25 21 25 11 0 17 5 14 10 -3 6 -15 10 -26 10 -16 0 -19
-7 -19 -45z"/>
<path d="M1520 1116 c0 -7 -9 -16 -20 -19 -24 -6 -26 -30 -4 -48 13 -11 14 -9
9 14 -6 20 -3 27 8 27 10 0 13 -7 10 -19 -3 -10 0 -22 6 -25 7 -5 11 8 11 38
0 25 -4 46 -10 46 -5 0 -10 -6 -10 -14z"/>
<path d="M1645 1120 c-3 -5 -1 -10 4 -10 6 0 11 5 11 10 0 6 -2 10 -4 10 -3 0
-8 -4 -11 -10z"/>
<path d="M1794 1119 c-3 -5 1 -9 9 -9 9 0 12 -9 9 -29 -2 -16 1 -32 7 -35 7
-5 11 5 11 28 0 20 5 36 10 36 6 0 10 4 10 9 0 5 -11 9 -25 9 -14 0 -28 -4
-31 -9z"/>
<path d="M2075 1106 c-17 -25 -12 -51 11 -60 38 -14 63 24 39 60 -19 30 -31
30 -50 0z m43 -24 c3 -17 -2 -22 -17 -22 -14 0 -21 6 -21 18 0 38 33 41 38 4z"/>
<path d="M2152 1113 c-5 -10 -5 -31 -1 -48 l7 -30 1 28 c0 15 7 27 14 27 8 0
7 4 -3 10 -10 6 -11 10 -2 10 6 0 12 5 12 10 0 16 -19 11 -28 -7z"/>
<path d="M2205 1120 c-3 -5 -1 -10 4 -10 6 0 11 -13 11 -30 0 -16 5 -30 11
-30 7 0 8 11 4 30 -5 23 -3 30 9 30 9 0 16 5 16 10 0 6 -11 10 -24 10 -14 0
-28 -4 -31 -10z"/>
<path d="M2380 1116 c0 -8 -7 -16 -15 -20 -18 -6 -20 -27 -4 -43 21 -21 39 -3
39 38 0 21 -4 39 -10 39 -5 0 -10 -6 -10 -14z m7 -41 c0 -8 -4 -15 -8 -15 -11
0 -20 16 -12 24 11 11 20 7 20 -9z"/>
<path d="M2410 1120 c0 -5 5 -10 11 -10 5 0 7 5 4 10 -3 6 -8 10 -11 10 -2 0
-4 -4 -4 -10z"/>
<path d="M1951 1113 c0 -7 -10 -13 -21 -13 -11 0 -20 -7 -20 -15 0 -8 6 -15
13 -15 8 0 7 -3 -3 -10 -8 -5 -11 -12 -7 -16 4 -4 12 -3 19 4 8 8 8 15 -2 27
-10 12 -10 15 4 15 9 0 16 -8 16 -19 0 -21 17 -37 28 -26 3 3 1 9 -5 13 -6 4
-13 21 -16 37 -2 17 -5 24 -6 18z"/>
<path d="M2440 1110 c0 -5 -7 -10 -15 -10 -10 0 -15 -10 -15 -31 0 -34 19 -31
21 4 1 21 1 21 8 -2 7 -25 31 -42 31 -22 0 6 -4 11 -10 11 -12 0 -13 27 -1 32
5 2 3 9 -5 16 -8 7 -14 8 -14 2z"/>
<path d="M1269 1091 c8 -5 11 -16 8 -25 -4 -9 -2 -16 3 -16 6 0 10 11 10 25 0
17 -5 25 -17 25 -15 0 -15 -2 -4 -9z"/>
<path d="M1300 1076 c0 -29 17 -43 33 -27 8 8 6 11 -6 11 -9 0 -17 7 -17 15 0
8 5 15 11 15 5 0 7 -5 3 -11 -4 -7 -2 -10 5 -8 21 7 17 24 -6 27 -19 3 -23 -1
-23 -22z"/>
<path d="M1434 1067 c-1 -19 2 -25 9 -18 7 7 15 7 26 -2 14 -10 14 -10 3 4 -7
9 -10 23 -7 31 3 8 -1 14 -12 14 -13 0 -18 -9 -19 -29z"/>
<path d="M1551 1079 c-1 -30 6 -40 25 -32 8 3 13 17 13 32 -2 23 -2 24 -6 4
-2 -13 -8 -23 -13 -23 -5 0 -11 10 -13 23 -4 20 -4 20 -6 -4z"/>
<path d="M1610 1085 c0 -8 5 -15 11 -15 5 0 7 5 4 10 -3 6 -2 10 4 10 20 0 21
-19 1 -25 -28 -9 -25 -23 5 -21 20 1 25 6 25 26 0 20 -5 26 -25 28 -16 1 -25
-3 -25 -13z"/>
<path d="M1675 1079 c12 -38 24 -45 34 -18 6 15 10 18 10 8 1 -19 27 -32 44
-22 6 4 2 10 -11 14 -26 10 -29 29 -4 29 14 0 15 -2 2 -10 -13 -8 -12 -10 3
-10 30 0 13 25 -17 26 -19 1 -30 -5 -36 -20 -7 -16 -9 -17 -9 -4 -1 9 -6 20
-12 24 -8 4 -9 -1 -4 -17z"/>
<path d="M1865 1092 c16 -12 16 -32 0 -26 -8 4 -15 2 -15 -4 0 -14 24 -22 39
-12 18 10 4 50 -17 50 -10 0 -13 -3 -7 -8z"/>
<path d="M1997 1093 c-12 -11 -7 -41 7 -46 21 -8 28 4 9 18 -13 9 -13 14 -3
20 9 5 11 4 6 -3 -4 -7 -2 -12 3 -12 6 0 11 7 11 15 0 15 -21 21 -33 8z"/>
<path d="M2260 1076 c0 -14 5 -26 10 -26 6 0 10 9 10 20 0 15 7 20 25 20 16 0
25 -6 25 -15 0 -8 -5 -15 -11 -15 -5 0 -7 6 -3 13 5 9 4 9 -6 0 -16 -14 -4
-34 16 -26 8 3 14 15 12 27 -2 16 -11 22 -40 24 -35 3 -38 1 -38 -22z"/>
<path d="M2482 1070 c0 -19 2 -27 5 -17 2 9 2 25 0 35 -3 9 -5 1 -5 -18z"/>
<path d="M2504 1086 c-8 -21 13 -46 32 -39 20 8 13 47 -9 51 -9 2 -20 -4 -23
-12z m30 -17 c-3 -5 -10 -7 -15 -3 -5 3 -7 10 -3 15 3 5 10 7 15 3 5 -3 7 -10
3 -15z"/>
<path d="M2562 1070 c0 -19 2 -27 5 -17 2 9 2 25 0 35 -3 9 -5 1 -5 -18z"/>
<path d="M2587 1075 c3 -14 10 -25 15 -25 13 0 6 43 -8 47 -7 2 -10 -6 -7 -22z"/>
<path d="M777 938 c-49 -51 -53 -64 -25 -82 16 -10 25 -4 57 37 12 15 29 98
19 96 -1 0 -25 -23 -51 -51z m23 -24 c0 -3 -6 -12 -14 -19 -17 -17 -30 -7 -15
12 12 13 29 18 29 7z"/>
</g>
</svg>
