<svg height="512" viewBox="0 0 128 128" width="512" xmlns="http://www.w3.org/2000/svg" xmlns:xlink="http://www.w3.org/1999/xlink"><linearGradient id="a" gradientUnits="userSpaceOnUse" x1="124.347" x2="14.075" y1="124.344" y2="14.072"><stop offset="0" stop-color="#fd5b6e"/><stop offset="1" stop-color="#8a87e0"/></linearGradient><path d="m48 10a38 38 0 1 0 38 38 38.045 38.045 0 0 0 -38-38zm0 72.5a34.5 34.5 0 1 1 34.5-34.5 34.541 34.541 0 0 1 -34.5 34.5zm76.352 24.191-23.48-23.48a1.749 1.749 0 0 0 -2.475 0l-1.582 1.582-10.45-10.45a1.749 1.749 0 1 0 -2.474 2.474l10.45 10.451-7.071 7.071-10.45-10.45a1.752 1.752 0 0 0 -2.282-.167 44.4 44.4 0 1 1 15.23-20.329 1.749 1.749 0 1 0 3.283 1.21 48.023 48.023 0 1 0 -17.651 22.813l9.4 9.4-1.586 1.584a1.749 1.749 0 0 0 0 2.476l23.546 23.484a12.467 12.467 0 0 0 17.593-17.669zm-8.8 17.806a8.887 8.887 0 0 1 -6.32-2.614l-22.3-22.252 1.58-1.58 9.546-9.546 1.582-1.582 22.243 22.243a8.987 8.987 0 0 1 -6.327 15.331zm-43.708-91.744a12.21 12.21 0 0 1 -.486 16.3 1.75 1.75 0 0 1 -2.537-2.41 8.722 8.722 0 0 0 -6.321-14.735h-.93a15.314 15.314 0 0 0 -12.185 5.972 1.813 1.813 0 0 1 -2.767 0 15.314 15.314 0 0 0 -12.185-5.972h-.7a9.046 9.046 0 0 0 -6.409 2.563 8.693 8.693 0 0 0 -.145 12.168l20.097 21.141a1 1 0 0 0 1.451 0 1.75 1.75 0 0 1 2.537 2.41 4.5 4.5 0 0 1 -6.525 0l-20.095-21.14a12.176 12.176 0 0 1 .2-17.044 12.568 12.568 0 0 1 8.894-3.6h.7a18.77 18.77 0 0 1 13.562 5.734 18.774 18.774 0 0 1 13.57-5.732h.93a12.2 12.2 0 0 1 9.344 4.345zm-8.8 22.51a1.749 1.749 0 0 1 .063 2.473l-3.586 3.764a1.75 1.75 0 0 1 -2.537-2.41l3.58-3.768a1.75 1.75 0 0 1 2.475-.059z" fill="url(#a)"/></svg>